HIERARCHY
ROOT Hips
{
	OFFSET 0.000000 0.000000 0.000000 
	CHANNELS 6 Xposition Yposition Zposition Zrotation Yrotation Xrotation
	JOINT LeftUpLeg
	{
		OFFSET 1.363060 -1.794630 0.839290 
		CHANNELS 3 Zrotation Yrotation Xrotation
		JOINT LeftLeg
		{
			OFFSET 2.448110 -6.726130 0.000000 
			CHANNELS 3 Zrotation Yrotation Xrotation
			JOINT LeftFoot
			{
				OFFSET 2.562200 -7.039590 0.000000 
				CHANNELS 3 Zrotation Yrotation Xrotation
				JOINT LeftToeBase
				{
					OFFSET 0.157640 -0.433110 2.322550 
					CHANNELS 3 Zrotation Yrotation Xrotation
					End Site
					{
						OFFSET 0.000000 0.000000 0.000000 
					}
				}
			}
		}
	}
	JOINT RightUpLeg
	{
		OFFSET -1.305520 -1.794630 0.839290 
		CHANNELS 3 Zrotation Yrotation Xrotation
		JOINT RightLeg
		{
			OFFSET -2.542530 -6.985550 0.000000 
			CHANNELS 3 Zrotation Yrotation Xrotation
			JOINT RightFoot
			{
				OFFSET -2.568260 -7.056230 0.000000 
				CHANNELS 3 Zrotation Yrotation Xrotation
				JOINT RightToeBase
				{
					OFFSET -0.164730 -0.452590 2.363150 
					CHANNELS 3 Zrotation Yrotation Xrotation
					End Site
					{
						OFFSET 0.000000 0.000000 0.000000 
					}
				}
			}
		}
	}
	JOINT Spine
	{
		OFFSET 0.028270 2.035590 -0.193380 
		CHANNELS 3 Zrotation Yrotation Xrotation
		JOINT Spine1
		{
			OFFSET 0.056720 2.048850 -0.042750 
			CHANNELS 3 Zrotation Yrotation Xrotation
			JOINT Neck1
			{
				OFFSET -0.054170 1.746240 0.172020 
				CHANNELS 3 Zrotation Yrotation Xrotation
				JOINT Head
				{
					OFFSET 0.104070 1.761360 -0.123970 
					CHANNELS 3 Zrotation Yrotation Xrotation
					End Site
					{
						OFFSET 0.000000 0.000000 0.000000 
					}
				}
			}
			JOINT LeftArm
			{
				OFFSET 3.362410 1.200890 -0.311210 
				CHANNELS 3 Zrotation Yrotation Xrotation
				JOINT LeftForeArm
				{
					OFFSET 4.983000 -0.000000 -0.000000 
					CHANNELS 3 Zrotation Yrotation Xrotation
					JOINT LeftHand
					{
						OFFSET 3.483560 -0.000000 -0.000000 
						CHANNELS 3 Zrotation Yrotation Xrotation
						JOINT LeftHandIndex1
						{
							OFFSET 0.715260 -0.000000 -0.000000 
							CHANNELS 3 Zrotation Yrotation Xrotation
							End Site
							{
								OFFSET 0.000000 0.000000 0.000000 
							}
						}
					}
				}
			}
			JOINT RightArm
			{
				OFFSET -3.136600 1.374050 -0.404650 
				CHANNELS 3 Zrotation Yrotation Xrotation
				JOINT RightForeArm
				{
					OFFSET -5.241900 -0.000000 -0.000000 
					CHANNELS 3 Zrotation Yrotation Xrotation
					JOINT RightHand
					{
						OFFSET -3.444170 -0.000000 -0.000000 
						CHANNELS 3 Zrotation Yrotation Xrotation
						JOINT RightHandIndex1
						{
							OFFSET -0.622530 -0.000000 -0.000000 
							CHANNELS 3 Zrotation Yrotation Xrotation
							End Site
							{
								OFFSET 0.000000 0.000000 0.000000 
							}
						}
					}
				}
			}
		}
	}
}
MOTION
Frames: 7
Frame Time: 0.041667
10.830250 17.802761 -22.473899 -137.967490 87.047330 -135.429516 -13.863833 1.453540 -2.772461 -0.521775 6.657877 16.486512 1.641764 -11.582220 -1.145836 0.882700 5.989300 16.753300 13.776778 -2.562236 -32.888528 -4.910674 -14.815593 43.357869 0.726980 -4.970188 -3.445254 -0.000900 -0.192300 0.528300 1.862639 0.388270 -2.530969 5.401712 0.014209 2.217854 2.218361 -0.049291 19.759677 2.046700 -0.716800 13.808400 -87.290546 6.235094 26.725822 16.145003 -28.048019 -4.336671 -0.161009 0.076083 -3.329222 -7.125000 0.000000 0.000000 82.382699 -3.111174 4.375341 -10.692564 18.148301 -2.128731 0.694319 -0.319027 -5.785097 7.125000 0.000000 0.000000 
10.891165 17.803581 -22.481987 -125.314370 86.621407 -122.858054 -13.204813 1.643593 -2.348744 -0.562014 6.514637 15.990701 1.650824 -11.744927 -0.774109 0.807300 5.734200 16.015200 14.448301 -2.543314 -32.712081 -4.400761 -14.294823 41.425791 0.732405 -4.980034 -3.018176 -0.002600 -0.331400 0.910600 1.918479 0.420212 -2.485356 5.209346 0.084210 2.288762 2.279865 -0.027953 19.729069 2.106500 -0.710200 13.770600 -87.188432 6.314375 26.997094 16.311551 -28.243158 -4.406359 -0.160668 0.073241 -3.466604 -7.125000 0.000000 0.000000 82.349292 -3.273221 5.229378 -10.650993 18.113304 -2.114170 0.718333 -0.314194 -6.658026 7.125000 0.000000 0.000000 
10.942764 17.803888 -22.530412 -134.356313 86.789657 -131.700763 -13.738589 1.722009 -2.080565 -0.601743 6.321031 15.508885 1.638097 -11.978713 -0.520115 0.900400 6.047500 16.922400 14.001531 -3.273711 -33.125851 -3.909645 -13.791961 39.468403 0.651092 -4.620157 -1.890980 -0.010700 -0.667400 1.833900 1.909983 0.048629 -2.499233 5.129839 -0.128526 2.357817 2.274863 0.259845 19.779894 2.187400 -0.631100 13.841400 -87.470451 6.339466 26.839683 16.420525 -28.366106 -4.450955 -0.160160 0.073230 -3.576796 -7.125000 0.000000 0.000000 82.376431 -3.565676 5.211755 -11.138789 18.838809 -2.290290 0.683073 -0.264514 -6.332543 7.125000 0.000000 0.000000 
11.018729 17.806857 -22.474309 -168.348420 87.583219 -165.385820 -14.867146 1.974498 -2.004702 -0.661441 6.121511 14.908271 1.611241 -12.123923 -0.401298 0.981900 6.307500 17.679300 12.787700 -2.957124 -33.101445 -3.487138 -13.237959 37.601929 0.720701 -4.931958 -1.111712 -0.045100 -1.370200 3.768100 1.889485 -0.004171 -2.465943 6.187815 -0.270440 2.703549 2.413910 0.226027 19.740920 2.263800 -0.654700 13.899600 -87.379134 6.044131 27.074242 16.365980 -28.364841 -4.436515 -0.162374 0.076961 -3.287073 -7.125000 0.000000 0.000000 82.391244 -3.463455 4.972232 -11.353795 19.098258 -2.356824 0.643262 -0.221236 -6.112489 7.125000 0.000000 0.000000 
11.085071 17.810542 -22.465606 -153.341963 87.352489 -150.392237 -14.412399 2.371472 -1.495794 -0.698270 5.848284 14.213571 1.607848 -12.202490 -0.073713 0.972800 6.279100 17.596300 13.206133 -2.901780 -32.987298 -3.027906 -12.777764 35.763646 0.725318 -5.008190 -0.451317 -0.099100 -2.030500 5.589900 1.965102 -0.007431 -2.426432 6.340226 -0.282639 2.804560 2.495301 0.210664 19.689026 2.345800 -0.678900 13.880000 -87.559737 5.939605 26.544625 16.428062 -28.445787 -4.469225 -0.160204 0.081774 -2.358588 -7.125000 0.000000 0.000000 81.859326 -3.549513 7.082561 -11.218150 18.934287 -2.302180 0.664663 -0.187038 -8.140589 7.125000 0.000000 0.000000 
11.146907 17.815968 -22.480144 -149.834431 87.189854 -146.789531 -14.276329 2.605223 -1.161284 -0.735132 5.638158 13.629506 1.602339 -12.310579 0.190464 0.944700 6.190500 17.338000 13.357338 -3.130364 -33.049758 -2.590220 -12.221201 33.833477 0.725525 -5.076260 0.481370 -0.101800 -2.057100 5.663400 2.017325 -0.232902 -2.446398 6.349165 -0.383297 2.786497 2.430299 0.357905 19.736887 2.348100 -0.640400 13.860500 -87.884824 6.140383 25.824868 16.544442 -28.595236 -4.529160 -0.157606 0.087642 -1.955027 -7.125000 0.000000 0.000000 81.462464 -3.701373 8.718933 -10.996428 18.651759 -2.220765 0.692009 -0.181369 -9.423478 7.125000 0.000000 0.000000 
11.211201 17.815456 -22.481066 -152.220585 87.138402 -149.105168 -14.297281 2.690939 -0.942265 -0.744079 5.569079 13.438412 1.596471 -12.435709 0.406864 0.991900 6.338700 17.770400 13.246768 -3.053599 -32.891019 -2.134772 -11.589773 31.706172 0.770458 -5.373115 1.436638 -0.032300 -1.159900 3.188900 2.038385 -0.448083 -2.452400 6.418578 -0.497794 2.815229 2.385150 0.482317 19.789056 2.320700 -0.588200 13.871500 -87.794776 6.080869 25.968183 16.375607 -28.397845 -4.454129 -0.156563 0.086668 -2.328797 -7.125000 0.000000 0.000000 81.693188 -3.525256 7.361710 -10.832714 18.395865 -2.164743 0.677559 -0.208136 -7.833814 7.125000 0.000000 0.000000 
